<svg width="179" height="40" viewBox="0 0 179 40" fill="none" xmlns="http://www.w3.org/2000/svg">
<path d="M6.90011 22.3903C3.08724 22.3903 0.0032959 19.2904 0.0032959 15.4995V12.2689H2.90033V15.4995C2.90033 17.7031 4.69462 19.4958 6.90011 19.4958V22.3903Z" fill="#FF707C"/>
<path d="M43.4775 16.0971C42.3374 12.9972 40.1506 10.4202 37.347 8.77684V2.91316C34.8051 2.91316 32.6557 4.63118 32.0015 6.98412C31.4221 6.90943 30.8427 6.87208 30.2633 6.87208H19.5536C11.7783 6.87208 5.46094 13.1839 5.46094 20.9524C5.46094 27.6751 10.171 33.2773 16.4697 34.6965V40H22.0955V35.0327H27.7214V40H33.3472V34.6779C38.0386 33.6321 41.8514 30.2334 43.4962 25.789H47.3838V16.0784H43.4962L43.4775 16.0971Z" fill="#FF707C"/>
<path d="M26.413 6.87209H19.5536C11.7783 6.87209 5.46094 13.1839 5.46094 20.9524C5.46094 27.6751 10.171 33.2773 16.4697 34.6965V40H22.0955V35.0327H26.413V6.87209Z" fill="#FF959E"/>
<path d="M17.5911 11.3539H32.2258V14.2484H17.5911V11.3539Z" fill="#E21A4D"/>
<path d="M37.2349 14.1923C36.1695 14.1923 35.3098 15.0514 35.3098 16.1158C35.3098 17.1802 36.1695 18.0392 37.2349 18.0392C38.3002 18.0392 39.16 17.1802 39.16 16.1158C39.16 15.0514 38.3002 14.1923 37.2349 14.1923Z" fill="#E21A4D"/>
<path d="M24.8617 0C29.254 0 32.8052 3.54809 32.8052 7.93651C32.8052 10.5135 31.5716 12.8105 29.6652 14.2484L20.0769 14.267C18.1705 12.8105 16.9182 10.5322 16.9182 7.93651C16.9182 3.54809 20.4694 0 24.8617 0Z" fill="#E66600"/>
<path d="M24.8617 2.76377C27.7214 2.76377 30.0203 5.07936 30.0203 7.91783C30.0203 10.775 27.7027 13.0719 24.8617 13.0719C22.0021 13.0719 19.7031 10.7563 19.7031 7.91783C19.7031 5.06069 22.0208 2.76377 24.8617 2.76377Z" fill="#FFBA00"/>
<path d="M24.8617 0C20.4881 0 16.9182 3.54809 16.9182 7.93651C16.9182 10.5135 18.1518 12.8105 20.0769 14.267L24.8617 14.2484V0V0Z" fill="#FFBA00"/>
<path d="M24.8617 2.76378C22.0021 2.76378 19.7031 5.07937 19.7031 7.91784C19.7031 10.775 22.0208 13.0719 24.8617 13.0719V2.7451V2.76378Z" fill="#FDDF9C"/>
<path d="M72.9107 22.5829C72.9107 20.8892 72.6365 19.5906 72.0801 18.6873C71.5237 17.7839 70.685 17.3403 69.5561 17.3403C69.04 17.3403 68.5319 17.4129 68.0319 17.55C67.532 17.6952 67.0965 17.8646 66.7417 18.0743V27.9062C67.1046 27.9869 67.4836 28.0353 67.8787 28.0595C68.2739 28.0837 68.6206 28.0998 68.9029 28.0998C70.1367 28.0998 71.1124 27.6804 71.8301 26.8496C72.5478 26.0108 72.9107 24.5913 72.9107 22.591V22.5829ZM77.733 22.6959C77.733 24.1396 77.5395 25.4381 77.1524 26.6077C76.7653 27.7772 76.2009 28.7773 75.459 29.6C74.7171 30.4227 73.7978 31.0598 72.7252 31.5115C71.6447 31.9632 70.4108 32.189 69.0238 32.189C67.79 32.189 66.532 32.1003 65.2418 31.9229C63.9596 31.7454 62.879 31.5115 62 31.2292V5.81462L66.7417 5.00806V14.0738C67.411 13.7673 68.0561 13.5495 68.669 13.4366C69.2819 13.3237 69.9028 13.2591 70.5237 13.2591C71.7092 13.2591 72.7494 13.485 73.6445 13.9366C74.5477 14.3883 75.2977 15.0255 75.9025 15.8643C76.5073 16.7031 76.9589 17.6952 77.2734 18.8566C77.5798 20.01 77.733 21.3005 77.733 22.712V22.6959ZM80.0878 22.8491C80.0878 21.2521 80.3297 19.8568 80.8216 18.6469C81.3135 17.4371 81.9506 16.4289 82.7489 15.6224C83.5472 14.8158 84.4585 14.2028 85.4826 13.7915C86.5148 13.3801 87.5632 13.1785 88.6438 13.1785C91.321 13.1785 93.3451 13.9689 94.7402 15.5498C96.1272 17.1306 96.8207 19.4374 96.8207 22.47C96.8207 22.7765 96.8127 23.0991 96.8046 23.4379C96.7885 23.7686 96.7724 24.0428 96.7482 24.2444H84.9907C84.9907 25.4301 85.4826 26.3576 86.4584 27.0432C87.4341 27.7207 88.6921 28.0675 90.2404 28.0675C91.192 28.0675 92.0952 27.9627 92.958 27.761C93.8209 27.5513 94.5467 27.3497 95.1353 27.14L95.7885 31.1889C94.966 31.4712 94.0951 31.7132 93.1677 31.8987C92.2403 32.0922 91.2001 32.189 90.0469 32.189C88.5067 32.189 87.1196 31.9874 85.902 31.5922C84.6843 31.197 83.636 30.6001 82.7812 29.8178C81.9183 29.0354 81.257 28.0595 80.7974 26.9061C80.3377 25.7527 80.1039 24.3977 80.1039 22.8572L80.0878 22.8491ZM92.2323 20.9618C92.2323 20.4698 92.1678 20.002 92.0387 19.5503C91.9097 19.0986 91.7081 18.6953 91.4259 18.3324C91.1436 17.9694 90.7807 17.6871 90.3453 17.4613C89.9098 17.2435 89.3695 17.1306 88.7244 17.1306C88.1035 17.1306 87.5712 17.2355 87.1277 17.4371C86.6761 17.6387 86.3052 17.9291 86.0068 18.284C85.7084 18.6469 85.4826 19.0583 85.3133 19.518C85.1439 19.9778 85.0391 20.4536 84.9827 20.9456H92.2323V20.9618Z" fill="#FEFEFE"/>
<path d="M104.861 22.6959C104.861 21.3812 105.07 20.1471 105.482 18.9938C105.893 17.8404 106.522 16.8241 107.369 15.9692C108.215 15.1062 109.288 14.4286 110.586 13.9286C111.884 13.4285 113.433 13.1785 115.231 13.1785C116.312 13.1785 117.287 13.2591 118.158 13.4124C119.029 13.5656 119.916 13.8237 120.819 14.1867L119.779 18.0017C119.263 17.8243 118.691 17.6629 118.062 17.5178C117.433 17.3726 116.626 17.3081 115.65 17.3081C114.521 17.3081 113.578 17.4452 112.82 17.7113C112.062 17.9775 111.449 18.3566 110.989 18.8324C110.53 19.3083 110.191 19.881 109.989 20.5504C109.788 21.2199 109.683 21.9377 109.683 22.712C109.683 24.3816 110.151 25.6962 111.094 26.648C112.03 27.5997 113.634 28.0756 115.892 28.0756C116.634 28.0756 117.416 28.0272 118.223 27.9223C119.029 27.8175 119.771 27.6562 120.44 27.4223L121.134 31.3179C120.465 31.576 119.658 31.7858 118.707 31.9551C117.755 32.1245 116.634 32.2052 115.352 32.2052C113.497 32.2052 111.917 31.9632 110.586 31.4712C109.264 30.9792 108.175 30.3178 107.328 29.4629C106.482 28.616 105.861 27.6078 105.457 26.4544C105.062 25.301 104.861 24.0509 104.861 22.712V22.6959ZM132.125 28.3659C132.641 28.3659 133.141 28.3579 133.625 28.3498C134.117 28.3337 134.537 28.3014 134.899 28.253V24.0912C134.593 24.0428 134.222 23.9944 133.778 23.9541C133.343 23.9138 132.94 23.8976 132.585 23.8976C132.093 23.8976 131.617 23.9299 131.158 23.9944C130.698 24.0589 130.287 24.1719 129.94 24.3251C129.593 24.4783 129.319 24.6961 129.109 24.9784C128.908 25.2607 128.803 25.6317 128.803 26.0995C128.803 26.9222 129.109 27.511 129.73 27.8578C130.351 28.2046 131.142 28.3821 132.117 28.3821L132.125 28.3659ZM131.698 13.1704C133.19 13.1704 134.432 13.3479 135.415 13.6947C136.407 14.0415 137.198 14.5335 137.786 15.1626C138.375 15.7917 138.802 16.566 139.06 17.4774C139.319 18.3888 139.448 19.4132 139.448 20.5424V31.3421C138.754 31.4954 137.722 31.6728 136.359 31.8825C134.996 32.0922 133.464 32.189 131.771 32.189C130.617 32.189 129.569 32.0842 128.626 31.8825C127.69 31.6728 126.884 31.3341 126.214 30.8582C125.545 30.3823 125.029 29.7694 124.674 29.0031C124.311 28.245 124.134 27.3094 124.134 26.2044C124.134 25.1478 124.343 24.2606 124.755 23.5427C125.166 22.8249 125.722 22.2442 126.416 21.8086C127.109 21.3731 127.908 21.0585 128.803 20.865C129.706 20.6714 130.642 20.5746 131.617 20.5746C132.851 20.5746 133.94 20.6795 134.891 20.8811V20.3004C134.891 19.397 134.609 18.6469 134.045 18.042C133.48 17.4371 132.504 17.1387 131.117 17.1387C130.214 17.1387 129.351 17.2032 128.513 17.3323C127.674 17.4613 127.005 17.6145 126.489 17.792L125.835 13.977C126.424 13.7673 127.263 13.5818 128.343 13.4205C129.424 13.2511 130.545 13.1704 131.698 13.1704ZM150.52 28.1724C151.673 28.1724 152.56 28.0917 153.181 27.9223C153.802 27.753 154.108 27.4142 154.108 26.898C154.108 26.5673 154.011 26.277 153.818 26.0511C153.624 25.8172 153.358 25.6237 153.011 25.4543C152.665 25.2849 152.269 25.1236 151.818 24.9703C151.366 24.8171 150.899 24.6639 150.407 24.5106C149.713 24.3009 149.003 24.067 148.286 23.7928C147.568 23.5266 146.907 23.1798 146.318 22.7684C145.729 22.3571 145.238 21.8328 144.85 21.2037C144.463 20.5746 144.27 19.7842 144.27 18.8324C144.27 18.0582 144.415 17.3323 144.713 16.6547C145.012 15.9772 145.471 15.3723 146.1 14.84C146.729 14.3157 147.536 13.9044 148.512 13.606C149.487 13.3075 150.657 13.1624 152.019 13.1624C153.205 13.1624 154.302 13.2511 155.318 13.4285C156.334 13.606 157.213 13.8641 157.963 14.2028L157.229 18.2114C156.793 18.0824 156.108 17.8726 155.189 17.5742C154.261 17.2758 153.221 17.1306 152.068 17.1306C150.858 17.1306 150.044 17.2758 149.616 17.5742C149.189 17.8726 148.979 18.1872 148.979 18.5179C148.979 18.8002 149.076 19.0502 149.27 19.268C149.463 19.4858 149.721 19.6874 150.044 19.8648C150.366 20.0423 150.737 20.2197 151.165 20.3891C151.592 20.5585 152.044 20.7198 152.536 20.873C153.229 21.1069 153.947 21.365 154.697 21.6473C155.439 21.9296 156.116 22.2845 156.721 22.712C157.326 23.1395 157.818 23.6799 158.205 24.3332C158.592 24.9865 158.785 25.793 158.785 26.7448C158.785 27.4868 158.64 28.1966 158.358 28.866C158.076 29.5355 157.608 30.1162 156.947 30.6001C156.293 31.0921 155.439 31.4712 154.382 31.7535C153.326 32.0358 152.028 32.181 150.487 32.181C148.923 32.181 147.584 32.0035 146.479 31.6406C145.375 31.2776 144.488 30.9631 143.818 30.6727L144.552 26.7044C145.455 27.0674 146.407 27.3981 147.423 27.7046C148.439 28.0111 149.471 28.1643 150.528 28.1643L150.52 28.1724ZM163.438 31.7616V5.80656L168.18 5V13.7915C168.567 13.6624 169.027 13.5414 169.567 13.4285C170.107 13.3156 170.583 13.2511 170.994 13.2511C172.333 13.2511 173.446 13.4527 174.349 13.8479C175.252 14.2431 175.97 14.8158 176.51 15.5417C177.05 16.2757 177.437 17.1467 177.663 18.163C177.897 19.1793 178.01 20.3004 178.01 21.5344V31.7535H173.268V22.1474C173.268 20.4536 173.075 19.2277 172.688 18.4856C172.301 17.7436 171.567 17.3645 170.486 17.3645C170.051 17.3645 169.615 17.4129 169.196 17.5178C168.769 17.6226 168.43 17.7113 168.172 17.7839V31.7454H163.43L163.438 31.7616Z" fill="#FEFEFE"/>
</svg>
